<svg xmlns="http://www.w3.org/2000/svg" viewBox="0 0 577.03 460.36"><defs><style>.cls-1{isolation:isolate;}.cls-2{fill:#8cd6f6;}.cls-2,.cls-4,.cls-5{fill-rule:evenodd;}.cls-3{fill:#d4d4d4;mix-blend-mode:multiply;}.cls-5{fill:#c51b21;}.cls-6{fill:#ec1b23;}.cls-7{fill:#fff;}</style></defs><title>big_ben</title><g class="cls-1"><g id="_238" data-name="238"><path class="cls-2" d="M484.35,51.6a21.71,21.71,0,0,0-8,1.56,20.91,20.91,0,0,0-15-15.34c0-.6.12-1.2.12-1.8a12,12,0,0,0-17-10.78,29.69,29.69,0,0,0-22.77-10.43,30,30,0,0,0-28.75,21.45,31.88,31.88,0,0,0-10.79-1.92,30,30,0,1,0,0,59.91h102.2a21.33,21.33,0,0,0,0-42.66Z"/><ellipse class="cls-3" cx="288.52" cy="449.36" rx="100" ry="11"/><path class="cls-4" d="M477.43,122.36A31.65,31.65,0,0,0,461.65,95L383,49.57v.09l-.09-.09L304.6,4.47a31.21,31.21,0,0,0-31.74-.26l-77.1,44.42c-.6.34-1.21.69-1.72.95L117.28,93.9a31.6,31.6,0,0,0-17.77,28.46V304.08h.09a31.43,31.43,0,0,0,15.7,27.25L194,376.78v-.09l.09.09,78.22,45.1a31.36,31.36,0,0,0,31.82.34l77.1-44.5c.52-.34,1.12-.6,1.72-.95l76.67-44.33a31.55,31.55,0,0,0,17.85-28.37V122.36Zm-350.5-8.8.69-.34L205,68.55l.52-.26.6-.34,77.7-44.76a9.11,9.11,0,0,1,9.57.09l.17.09L372,68.55,391.1,79.93l.09-.26L450.7,114a9.6,9.6,0,0,1,4.83,8.37v21.9h.09V271H121.42V122.36A9.75,9.75,0,0,1,126.94,113.57Z"/><path d="M304.66,148.26l-16.06,16-.11,0c-.06,0-.1.08-.2.08l-11.74-11.8-3.2,3.21,11.84,11.81a3.32,3.32,0,1,0,6.64,0s0-.06,0-.1l16.06-16Zm20.26,190.12v-141h2.72V139.82h.95v-4.44h-6.33V128.7h0l-14.83-27.75h.07V81.66h-.28c-1.16-2.68-16.82-48.06-17.94-55h-1.55c-1.11,6.93-16.82,52.32-17.91,55h-.31v19.28h0L254.79,128.7h0v6.69h-6.35v4.44h1v57.52h2.72v141H240.58v17h95.87v-17ZM288.49,196a28.44,28.44,0,1,1,28.44-28.45A28.44,28.44,0,0,1,288.49,196Z"/><path class="cls-5" d="M90.31,314.84H0l45.22,54.38L0,423.6H90.31Zm396.29,0H577l-45.22,54.38L577,423.6H486.6Z"/><rect class="cls-6" x="65.41" y="284.98" width="446.22" height="108.89"/><path class="cls-7" d="M185,359.19V313.36h-4.61v-7.3h13.47q7.5,0,11.79,4.17t4.29,11.42a14.87,14.87,0,0,1-2.42,8.79,9.12,9.12,0,0,1-6.76,3.91v.16a11.83,11.83,0,0,1,7.78,5,17.08,17.08,0,0,1,2.81,9.93q0,7.95-4.57,12.48t-13,4.53H180.34v-7.3Zm8.54-45.82v17.88a15.48,15.48,0,0,0,4.17-.52,4.54,4.54,0,0,0,2.59-2.37,12.91,12.91,0,0,0,1-5.89q0-4.93-1.5-7T193.49,313.36Zm0,25.17v20.65q4.73,0,6.84-2.41t2.1-7.71q0-4.7-1.34-7a6,6,0,0,0-3.09-2.91A14.5,14.5,0,0,0,193.49,338.54Z"/><path class="cls-7" d="M215.3,366.48v-7.3h4.61V313.36H215.3v-7.3h17.76v7.3h-4.61v45.82h4.61v7.3Z"/><path class="cls-7" d="M252.22,344.64v-7.3h13v5.49q0,11.7-3.59,18.18t-10,6.47a10.38,10.38,0,0,1-5.86-1.78,14,14,0,0,1-4.57-5.47,27.22,27.22,0,0,1-2.54-9.06A124.05,124.05,0,0,1,238,336.7q0-16.44,2.93-24t9.22-7.6a8.68,8.68,0,0,1,6.49,3.29v-2.29h7.3v19.61h-7.3q0-12.63-4.85-12.63a2.94,2.94,0,0,0-2.75,1.67q-.9,1.66-1.3,6.41t-.4,14.49q0,10.63.36,15.51t1.28,6.64a3.06,3.06,0,0,0,2.89,1.75q2.84,0,3.69-3.75a54.6,54.6,0,0,0,.84-11.12Z"/><path class="cls-7" d="M302,359.19V313.36h-4.61v-7.3h13.47q7.5,0,11.79,4.17t4.29,11.42a14.85,14.85,0,0,1-2.43,8.79,9.11,9.11,0,0,1-6.75,3.91v.16a11.84,11.84,0,0,1,7.78,5,17.07,17.07,0,0,1,2.81,9.93q0,7.95-4.57,12.48t-13,4.53H297.37v-7.3Zm8.54-45.82v17.88a15.48,15.48,0,0,0,4.17-.52,4.54,4.54,0,0,0,2.58-2.37,12.89,12.89,0,0,0,1-5.89q0-4.93-1.5-7T310.52,313.36Zm0,25.17v20.65q4.73,0,6.84-2.41t2.1-7.71q0-4.7-1.34-7a6,6,0,0,0-3.09-2.91A14.45,14.45,0,0,0,310.52,338.54Z"/><path class="cls-7" d="M332.41,366.48v-7.3h4.45V313.36h-4.45v-7.3h27.82v17.64h-7.29V313.36H345.4v18.32h6.13V339H345.4v20.21h7.54V347.92h7.29v18.56Z"/><path class="cls-7" d="M365.16,366.48v-7.3h4.13V313.36h-4.13v-7.3h13.39L385.49,328l4.09,17.64h.24l-.92-18.24v-14h-4.09v-7.3h15.51v7.3h-4.13v53.12h-6.74L382,343.31q-1.2-3.77-2.53-9.14l-3.32-13.59h-.24l.64,18.4v20.21h4.09v7.3Z"/><path class="cls-2" d="M105,42.07a23.91,23.91,0,0,0-12.31-3.49,23.34,23.34,0,0,0,0,46.67H199a22.17,22.17,0,0,0,4.82-43.8,31.63,31.63,0,0,0,.92-7.69,31.18,31.18,0,0,0-60.83-9.64,22.78,22.78,0,0,0-15.8-6.26A23.05,23.05,0,0,0,105,40.94v1.13Z"/></g></g></svg>