<svg xmlns="http://www.w3.org/2000/svg" viewBox="0 0 577.03 460.36"><defs><style>.cls-1{isolation:isolate;}.cls-2{fill:#8cd6f6;}.cls-2,.cls-4,.cls-5{fill-rule:evenodd;}.cls-3{fill:#d4d4d4;mix-blend-mode:multiply;}.cls-5{fill:#c51b21;}.cls-6{fill:#ec1b23;}.cls-7{fill:#fff;}</style></defs><title>smeatons_tower</title><g class="cls-1"><g id="_233" data-name="233"><path class="cls-2" d="M484.35,51.6a21.71,21.71,0,0,0-8,1.56,20.91,20.91,0,0,0-15-15.34c0-.6.12-1.2.12-1.8a12,12,0,0,0-17-10.78,29.69,29.69,0,0,0-22.77-10.43,30,30,0,0,0-28.75,21.45,31.88,31.88,0,0,0-10.79-1.92,30,30,0,1,0,0,59.91h102.2a21.33,21.33,0,0,0,0-42.66Z"/><ellipse class="cls-3" cx="288.52" cy="449.36" rx="100" ry="11"/><path class="cls-4" d="M477.43,122.36A31.65,31.65,0,0,0,461.65,95L383,49.57v.09l-.09-.09L304.6,4.47a31.21,31.21,0,0,0-31.74-.26l-77.1,44.42c-.6.34-1.21.69-1.72.95L117.28,93.9a31.6,31.6,0,0,0-17.77,28.46V304.08h.09a31.43,31.43,0,0,0,15.7,27.25L194,376.78v-.09l.09.09,78.22,45.1a31.36,31.36,0,0,0,31.82.34l77.1-44.5c.52-.34,1.12-.6,1.72-.95l76.67-44.33a31.55,31.55,0,0,0,17.85-28.37V122.36Zm-350.5-8.8.69-.34L205,68.55l.52-.26.6-.34,77.7-44.76a9.11,9.11,0,0,1,9.57.09l.17.09L372,68.55,391.1,79.93l.09-.26L450.7,114a9.6,9.6,0,0,1,4.83,8.37v21.9h.09V271H121.42V122.36A9.75,9.75,0,0,1,126.94,113.57Z"/><path d="M317.49,263.84c-1.87-10.16-7.34-41.65-9.19-69.61-2.21-33.9-1.9-67.5-1.9-67.5l3.8-1.24v-3.7l-3.8-2.15V111h-4.74v-8.32h-1.9V83.59c2.2,0,3.17-6.17-2.23-7.71-4.21-1.22-6.94-2.47-7.58-4.32a9.07,9.07,0,0,1-.43-1.78,2.62,2.62,0,0,0,1.67-2.45,2.66,2.66,0,0,0-1.89-2.55v-9.1h-1.55v9.1a2.65,2.65,0,0,0-.22,5,10.47,10.47,0,0,1-.43,1.78c-.63,1.85-3.37,3.1-7.61,4.32-5.38,1.54-4.43,7.71-2.21,7.71v19.11h-1.9V111h-4.74v8.62l-3.8,2.15v3.7l3.8,1.24s.33,33.6-1.9,67.5c-1.82,28-7.31,59.45-9.17,69.61H242.36v8.5h92.31v-8.5Zm-37.4-180h16.85v18.52H280.09ZM268.84,124.8V122h39.4v2.77Zm35.52,54.64h-31l1-28.56h29Zm-33.3,29.79H306.4l3.3,29.56H266.75Z"/><path class="cls-5" d="M90.31,314.84H0l45.22,54.38L0,423.6H90.31Zm396.29,0H577l-45.22,54.38L577,423.6H486.6Z"/><rect class="cls-6" x="65.41" y="284.98" width="446.22" height="108.89"/><path class="cls-7" d="M127.69,355.7V342.34h4.69v3.58a10.48,10.48,0,0,0,.65,4.38,2.32,2.32,0,0,0,2.25,1.26,2.38,2.38,0,0,0,2-1,4.52,4.52,0,0,0,.76-2.75,11,11,0,0,0-.53-3.21,11.36,11.36,0,0,0-1.27-2.87q-.74-1.13-3.75-5a31.21,31.21,0,0,1-4.14-6.31,14,14,0,0,1-1-5.58,10.55,10.55,0,0,1,1.71-6.24,5.18,5.18,0,0,1,8.31-.62v-1.16H142v11.6h-4.69v-2.94a7.34,7.34,0,0,0-.62-3.49,2.1,2.1,0,0,0-2-1.07q-2.27,0-2.27,2.86a9.28,9.28,0,0,0,.68,3.39,14.71,14.71,0,0,0,2.35,3.8l2.42,3q5.48,6.81,5.48,13a10.91,10.91,0,0,1-2,6.7,5.94,5.94,0,0,1-4.92,2.65,5.54,5.54,0,0,1-4.16-1.86v1.21Z"/><path class="cls-7" d="M146.69,355.7V351h2.91V321.55h-2.91v-4.69h11.55l1.5,8.2q.31,1.73.6,4.66L161,337h.15l.8-6.37q.46-3.76.9-6.34l1.21-7.4h11.62v4.69h-2.91V351h3v4.69H164.31V351h2.91V331.31l.41-10.46h-.52l-1.75,13.3L161.7,355.7H160l-3.58-19.95-2-14.89H154l.31,10.41V351h2.91v4.69Z"/><path class="cls-7" d="M178.1,355.7V351H181V321.55H178.1v-4.69H196v11.34H191.3v-6.65h-4.85v11.78h3.94V338h-3.94v13h4.85v-7.24H196V355.7Z"/><path class="cls-7" d="M207.56,342.19l-.95,8.82h2.47v4.69H198.69V351h2.42l4.28-29.46h-2.7v-4.69h14.38v4.69h-2.7L218.64,351h2.42v4.69H210.68V351h2.47l-.95-8.82Zm.35-4.69h3.94l-1.66-17.32h-.62Z"/><path class="cls-7" d="M241.84,316.85v14.2h-4.1V321h-3.3V351h3.07v4.69H225.89V351H229V321h-3.3v10.1h-4.1v-14.2Z"/><path class="cls-7" d="M261.61,336.49q0,19.85-9,19.85-4.61,0-6.82-4.92t-2.2-14.92a50.37,50.37,0,0,1,1.06-11.22,15.31,15.31,0,0,1,3.09-6.79,6.33,6.33,0,0,1,4.87-2.27q4.28,0,6.62,5.09T261.61,336.49Zm-12,.21a67.55,67.55,0,0,0,.63,11.47q.63,3,2.39,3t2.33-3a66.93,66.93,0,0,0,.63-11.42,81,81,0,0,0-.59-12.28q-.59-3.13-2.37-3.13t-2.45,3.44A84.74,84.74,0,0,0,249.62,336.7Z"/><path class="cls-7" d="M265,355.7V351h2.65V321.55H265v-4.69h8.61l4.46,14.1,2.63,11.34h.15l-.59-11.73v-9h-2.63v-4.69h10v4.69h-2.65V355.7H280.6l-4.77-14.9q-.77-2.42-1.62-5.88l-2.14-8.74h-.16l.41,11.83v13H275v4.69Z"/><path class="cls-7" d="M291.38,316.85h5.13v6.44l-1.65,8.58H293l-1.65-8.58Z"/><path class="cls-7" d="M301.45,355.7V342.34h4.69v3.58a10.42,10.42,0,0,0,.65,4.38,2.31,2.31,0,0,0,2.25,1.26,2.39,2.39,0,0,0,2-1,4.53,4.53,0,0,0,.76-2.75,11,11,0,0,0-.53-3.21,11.37,11.37,0,0,0-1.27-2.87q-.74-1.13-3.75-5a31.23,31.23,0,0,1-4.14-6.31,14,14,0,0,1-1-5.58,10.57,10.57,0,0,1,1.72-6.24,5.18,5.18,0,0,1,8.31-.62v-1.16h4.69v11.6h-4.69v-2.94a7.33,7.33,0,0,0-.62-3.49,2.1,2.1,0,0,0-2-1.07q-2.27,0-2.27,2.86a9.31,9.31,0,0,0,.68,3.39,14.74,14.74,0,0,0,2.35,3.8l2.42,3q5.48,6.81,5.48,13a10.93,10.93,0,0,1-2,6.7,5.94,5.94,0,0,1-4.92,2.65,5.54,5.54,0,0,1-4.16-1.86v1.21Z"/><path class="cls-7" d="M354.34,316.85v14.2h-4.1V321h-3.3V351H350v4.69H338.39V351h3.07V321h-3.3v10.1h-4.1v-14.2Z"/><path class="cls-7" d="M374.11,336.49q0,19.85-9,19.85-4.61,0-6.82-4.92t-2.21-14.92a50.32,50.32,0,0,1,1.06-11.22,15.32,15.32,0,0,1,3.09-6.79,6.33,6.33,0,0,1,4.87-2.27q4.28,0,6.62,5.09T374.11,336.49Zm-12,.21a67.31,67.31,0,0,0,.63,11.47q.63,3,2.38,3t2.33-3a67,67,0,0,0,.63-11.42,80.47,80.47,0,0,0-.59-12.28q-.59-3.13-2.37-3.13t-2.45,3.44A84.6,84.6,0,0,0,362.12,336.7Z"/><path class="cls-7" d="M383.1,356l-6-34.46h-2.27v-4.69h9.92v4.69h-2.29a213.17,213.17,0,0,1,3.18,23.32q1.22-12,3.14-23.32h-2.33v-4.69h9.17v4.69h-2.26a220.07,220.07,0,0,1,3.36,23.32,193.9,193.9,0,0,1,3-23.32h-2.26v-4.69h9.18v4.69h-2.17L398.79,356h-4.42q-2.9-14.93-3.67-22.42-.41,5.54-3.19,22.42Z"/><path class="cls-7" d="M408.46,355.7V351h2.86V321.55h-2.86v-4.69h17.89v11.34h-4.69v-6.65h-4.85v11.78h3.95V338h-3.95v13h4.85v-7.24h4.69V355.7Z"/><path class="cls-7" d="M437.77,338.07V351h2.89v4.69H429V351h3.27V321.55H429v-4.69h9.72a9.9,9.9,0,0,1,10.64,10.54q0,6.16-4.62,9.15L449,351h2.32v4.69h-6.56l-4.78-17.78A12.28,12.28,0,0,1,437.77,338.07Zm0-16.52v11.83q3.12,0,4.48-1.43a6.42,6.42,0,0,0,1.37-4.55q0-3.3-1.38-4.57A6.47,6.47,0,0,0,437.77,321.55Z"/><path class="cls-2" d="M105,42.07a23.91,23.91,0,0,0-12.31-3.49,23.34,23.34,0,0,0,0,46.67H199a22.17,22.17,0,0,0,4.82-43.8,31.63,31.63,0,0,0,.92-7.69,31.18,31.18,0,0,0-60.83-9.64,22.78,22.78,0,0,0-15.8-6.26A23.05,23.05,0,0,0,105,40.94v1.13Z"/></g></g></svg>