<svg xmlns="http://www.w3.org/2000/svg" viewBox="0 0 577.03 460.36"><defs><style>.cls-1{isolation:isolate;}.cls-2{fill:#8cd6f6;}.cls-2,.cls-4,.cls-5{fill-rule:evenodd;}.cls-3{fill:#d4d4d4;mix-blend-mode:multiply;}.cls-5{fill:#c51b21;}.cls-6{fill:#ec1b23;}.cls-7{fill:#fff;}</style></defs><title>stone_henge</title><g class="cls-1"><g id="_239" data-name="239"><path class="cls-2" d="M484.35,51.6a21.71,21.71,0,0,0-8,1.56,20.91,20.91,0,0,0-15-15.34c0-.6.12-1.2.12-1.8a12,12,0,0,0-17-10.78,29.69,29.69,0,0,0-22.77-10.43,30,30,0,0,0-28.75,21.45,31.88,31.88,0,0,0-10.79-1.92,30,30,0,1,0,0,59.91h102.2a21.33,21.33,0,0,0,0-42.66Z"/><ellipse class="cls-3" cx="288.52" cy="449.36" rx="100" ry="11"/><path class="cls-4" d="M477.43,122.36A31.65,31.65,0,0,0,461.65,95L383,49.57v.09l-.09-.09L304.6,4.47a31.21,31.21,0,0,0-31.74-.26l-77.1,44.42c-.6.34-1.21.69-1.72.95L117.28,93.9a31.6,31.6,0,0,0-17.77,28.46V304.08h.09a31.43,31.43,0,0,0,15.7,27.25L194,376.78v-.09l.09.09,78.22,45.1a31.36,31.36,0,0,0,31.82.34l77.1-44.5c.52-.34,1.12-.6,1.72-.95l76.67-44.33a31.55,31.55,0,0,0,17.85-28.37V122.36Zm-350.5-8.8.69-.34L205,68.55l.52-.26.6-.34,77.7-44.76a9.11,9.11,0,0,1,9.57.09l.17.09L372,68.55,391.1,79.93l.09-.26L450.7,114a9.6,9.6,0,0,1,4.83,8.37v21.9h.09V271H121.42V122.36A9.75,9.75,0,0,1,126.94,113.57Z"/><path d="M464.69,288.76s-6.42-9.32-45.75-18.08c-3.3-17.32-11.86-56.36-8.78-65.18,3.81-10.87,2.71-19.58,1.6-31.18s4.33-23.89-3.22-28.91-20.75-3.34-27.78-2.66-7.59.76-8.71,18.84-6.1,41-5,43.94c.76,2,3.38,35.94,4.83,56.09-9.46-.91-21.27-2-21.72-2-1.83-27.23-5-72.87-6.31-85.17a119.06,119.06,0,0,0-2.44-15.65c3.85-2.12,8.63-15.75,9.08-24,.61-8.94,1.16-20.43-15-21.1S257,117.53,252,117.53s-12.23,19.17-9.49,26.19.62,12.68,6.56,13.37c-3.88,8.78-7.37,33.83-8.56,55-.78,14.1-2.41,34.54-2.81,50-3.24.21-3.5.61-6.57.83,1.16-11.85-1.4-26.62-4.78-37.89-5.94-19.6,1.1-45.6,1.1-47.36,0-2.93-4.72-15-9.69-21.56,3.59-2.31,12.78-12.46.26-21.36-3.49-2.47-44.5,3.83-50.27,3.83s-25.43,10.71-26.88,13.92c-1.29,2.93,4.78,6,10.23,8a1.94,1.94,0,0,0-.55.5c-.81.83-3.55,21-9.3,26.09-4.9,4.4-2.48,69.94.33,88.49-24.83,6.8-29.18,13.18-29.18,13.18ZM187.26,267.41c-1.36.21-12.21.36-13.49.57-.74-26.36,2.87-88.23,2.12-94.25-.86-6.94,3.74-11.23-2.84-13.91,5.4-.29,11.23-.64,16.92-1C187.89,176.69,188,238.26,187.26,267.41ZM300,260c-6.11,0-17.86.16-20.44.21.36-31.78.52-87.3-2.31-102.43,4.09.07,22.28.19,26.62.28C303.62,163.44,299.84,228.81,300,260Z"/><path class="cls-5" d="M90.31,314.84H0l45.22,54.38L0,423.6H90.31Zm396.29,0H577l-45.22,54.38L577,423.6H486.6Z"/><rect class="cls-6" x="65.41" y="284.98" width="446.22" height="108.89"/><path class="cls-7" d="M138.77,363.29V344.72h6.52v5q0,4.34.9,6.1a3.22,3.22,0,0,0,3.13,1.76,3.31,3.31,0,0,0,2.79-1.43,6.27,6.27,0,0,0,1.06-3.83,15.31,15.31,0,0,0-.74-4.46,15.71,15.71,0,0,0-1.77-4q-1-1.57-5.21-6.89a43.42,43.42,0,0,1-5.76-8.78,19.49,19.49,0,0,1-1.43-7.77,14.67,14.67,0,0,1,2.39-8.67,7.2,7.2,0,0,1,11.56-.86v-1.61h6.53v16.14h-6.53v-4.09a10.2,10.2,0,0,0-.86-4.86,2.92,2.92,0,0,0-2.72-1.49q-3.16,0-3.16,4a12.91,12.91,0,0,0,.94,4.71,20.42,20.42,0,0,0,3.27,5.29l3.37,4.16q7.62,9.48,7.62,18.08a15.18,15.18,0,0,1-2.75,9.33,8.25,8.25,0,0,1-6.84,3.69,7.71,7.71,0,0,1-5.79-2.58v1.69Z"/><path class="cls-7" d="M193.41,309.26V329h-5.7V315h-4.59v41.81h4.27v6.53H171.22v-6.53h4.27V315H170.9V329h-5.7V309.26Z"/><path class="cls-7" d="M220.91,336.58q0,27.61-12.48,27.61-6.42,0-9.48-6.85t-3.06-20.76A70,70,0,0,1,197.36,321q1.47-6.29,4.3-9.45a8.8,8.8,0,0,1,6.78-3.16q6,0,9.21,7.08T220.91,336.58Zm-16.67.29q0,11.72.88,16t3.32,4.23q2.37,0,3.24-4.23t.88-15.88q0-12.72-.83-17.08t-3.3-4.36q-2.62,0-3.41,4.79T204.24,336.87Z"/><path class="cls-7" d="M225.61,363.29v-6.53h3.69v-41h-3.69v-6.53h12l6.2,19.62,3.66,15.77h.22l-.82-16.32V315.79h-3.66v-6.53h13.88v6.53h-3.7v47.5h-6l-6.63-20.72q-1.07-3.37-2.26-8.18l-3-12.15h-.21l.57,16.46v18.07h3.66v6.53Z"/><path class="cls-7" d="M260.57,363.29v-6.53h4v-41h-4v-6.53h24.88V325h-6.52v-9.25h-6.74v16.39h5.49v6.52h-5.49v18.07h6.74V346.69h6.52v16.6Z"/><path class="cls-7" d="M301.41,337.8v19H304v6.53h-14.3v-6.53h4.12v-41h-4.12v-6.53H304v6.53h-2.54v15.49H309V315.79h-2.54v-6.53h14.3v6.53h-4.12v41h4.12v6.53h-14.3v-6.53H309v-19Z"/><path class="cls-7" d="M324.1,363.29v-6.53h4v-41h-4v-6.53H349V325h-6.53v-9.25h-6.74v16.39h5.49v6.52h-5.49v18.07h6.74V346.69H349v16.6Z"/><path class="cls-7" d="M353.39,363.29v-6.53h3.69v-41h-3.69v-6.53h12l6.2,19.62,3.66,15.77h.21l-.82-16.32V315.79H371v-6.53h13.88v6.53h-3.7v47.5h-6l-6.63-20.72q-1.07-3.37-2.26-8.18l-3-12.15H363l.57,16.46v18.07h3.65v6.53Z"/><path class="cls-7" d="M402.23,343.75v-6.53h11.62v4.91q0,10.47-3.21,16.26t-9,5.79a9.28,9.28,0,0,1-5.23-1.6,12.51,12.51,0,0,1-4.09-4.89,24.35,24.35,0,0,1-2.28-8.1,111.37,111.37,0,0,1-.59-12.94q0-14.7,2.62-21.5t8.25-6.8a7.78,7.78,0,0,1,5.81,2.94v-2h6.52v17.53h-6.52q0-11.29-4.34-11.29a2.63,2.63,0,0,0-2.46,1.49,16.62,16.62,0,0,0-1.16,5.73q-.36,4.25-.36,13,0,9.5.33,13.87a17.1,17.1,0,0,0,1.14,5.94,2.73,2.73,0,0,0,2.58,1.56q2.54,0,3.3-3.36a48.85,48.85,0,0,0,.75-9.95Z"/><path class="cls-7" d="M418.14,363.29v-6.53h4v-41h-4v-6.53H443V325H436.5v-9.25h-6.74v16.39h5.49v6.52h-5.49v18.07h6.74V346.69H443v16.6Z"/><path class="cls-2" d="M105,42.07a23.91,23.91,0,0,0-12.31-3.49,23.34,23.34,0,0,0,0,46.67H199a22.17,22.17,0,0,0,4.82-43.8,31.63,31.63,0,0,0,.92-7.69,31.18,31.18,0,0,0-60.83-9.64,22.78,22.78,0,0,0-15.8-6.26A23.05,23.05,0,0,0,105,40.94v1.13Z"/></g></g></svg>